<svg width="26" height="18" viewBox="0 0 26 18" fill="none" xmlns="http://www.w3.org/2000/svg">
<path opacity="0.4" d="M18.4853 7.21436L23.8286 6.72363C25.0278 6.72363 26 7.74309 26 9.00048C26 10.2579 25.0278 11.2773 23.8286 11.2773L18.4853 10.7866C17.5446 10.7866 16.7819 9.9869 16.7819 9.00048C16.7819 8.01242 17.5446 7.21436 18.4853 7.21436Z" fill="#071731"/>
<path d="M0.542007 7.30476C0.625521 7.21718 0.937519 6.84707 1.23061 6.53975C2.94029 4.61483 7.40437 1.46723 9.73963 0.503947C10.0942 0.350285 10.9908 0.0231322 11.4714 1.40373e-07C11.9299 1.2033e-07 12.368 0.110703 12.7855 0.328805C13.3071 0.634478 13.7231 1.11695 13.9532 1.68533C14.0997 2.07858 14.3298 3.25996 14.3298 3.28144C14.5583 4.57187 14.6827 6.67028 14.6827 8.99009C14.6827 11.1975 14.5583 13.21 14.3707 14.5219C14.3503 14.5451 14.1202 16.0106 13.8697 16.5129C13.4111 17.4316 12.5145 18 11.5549 18L11.4714 18C10.8458 17.9785 9.53163 17.4085 9.53163 17.3887C7.32086 16.4254 2.96235 13.4298 1.21012 11.4388C1.21012 11.4388 0.715339 10.9266 0.501037 10.6077C0.166979 10.1483 -4.91723e-05 9.57995 -4.91972e-05 9.01157C-4.92249e-05 8.37709 0.187464 7.78722 0.542007 7.30476Z" fill="#071731"/>
</svg>
