<svg width="80" height="80" viewBox="0 0 80 80" fill="none" xmlns="http://www.w3.org/2000/svg">
<circle cx="40" cy="40" r="40" fill="#291E24"/>
<path opacity="0.4" d="M34.5147 41.7855L29.1714 42.2762C27.9722 42.2762 27 41.2568 27 39.9994C27 38.742 27.9722 37.7225 29.1714 37.7225L34.5147 38.2133C35.4554 38.2133 36.2181 39.013 36.2181 39.9994C36.2181 40.9875 35.4554 41.7855 34.5147 41.7855Z" fill="white"/>
<path d="M52.4579 41.6952C52.3744 41.7828 52.0624 42.1529 51.7693 42.4603C50.0596 44.3852 45.5955 47.5328 43.2602 48.4961C42.9057 48.6497 42.0091 48.9769 41.5285 49C41.07 49 40.6319 48.8893 40.2143 48.6712C39.6928 48.3655 39.2768 47.8831 39.0467 47.3147C38.9002 46.9214 38.6701 45.74 38.6701 45.7186C38.4416 44.4281 38.3171 42.3297 38.3171 40.0099C38.3171 37.8025 38.4416 35.79 38.6291 34.4781C38.6496 34.4549 38.8797 32.9894 39.1302 32.4871C39.5888 31.5684 40.4854 31 41.445 31L41.5285 31C42.1541 31.0215 43.4682 31.5915 43.4682 31.6113C45.679 32.5746 50.0375 35.5702 51.7898 37.5612C51.7898 37.5612 52.2845 38.0734 52.4988 38.3923C52.8329 38.8517 52.9999 39.42 52.9999 39.9884C52.9999 40.6229 52.8124 41.2128 52.4579 41.6952Z" fill="white"/>
</svg>
